<mxfile host="Electron" modified="2024-07-22T15:37:44.422Z" agent="Mozilla/5.0 (Windows NT 10.0; Win64; x64) AppleWebKit/537.36 (KHTML, like Gecko) draw.io/24.5.3 Chrome/124.0.6367.207 Electron/30.0.6 Safari/537.36" etag="Ydvvpk81BY32ijUu5wvv" version="24.5.3" type="device" pages="2">
  <diagram name="Administrator" id="7FTwMzZoVSn-wklYI_7g">
    <mxGraphModel dx="1235" dy="813" grid="1" gridSize="10" guides="1" tooltips="1" connect="1" arrows="1" fold="1" page="1" pageScale="1" pageWidth="1100" pageHeight="850" math="0" shadow="0">
      <root>
        <mxCell id="0" />
        <mxCell id="1" parent="0" />
        <mxCell id="h0v8Gbnb3fVlkxhMkXxS-2" value="" style="group" vertex="1" connectable="0" parent="1">
          <mxGeometry x="120" y="10" width="900" height="810" as="geometry" />
        </mxCell>
        <mxCell id="h0v8Gbnb3fVlkxhMkXxS-1" value="" style="group" vertex="1" connectable="0" parent="h0v8Gbnb3fVlkxhMkXxS-2">
          <mxGeometry x="70" width="750" height="810" as="geometry" />
        </mxCell>
        <mxCell id="2ncl9cSA9QrokcnmzJrR-21" value="SQL Add: New Cars" style="text;html=1;align=center;verticalAlign=middle;resizable=0;points=[];autosize=1;strokeColor=none;fillColor=none;" vertex="1" parent="h0v8Gbnb3fVlkxhMkXxS-1">
          <mxGeometry x="370" width="130" height="30" as="geometry" />
        </mxCell>
        <mxCell id="h0v8Gbnb3fVlkxhMkXxS-4" value="" style="group;movable=0;resizable=0;rotatable=0;deletable=0;editable=0;locked=1;connectable=0;" vertex="1" connectable="0" parent="h0v8Gbnb3fVlkxhMkXxS-1">
          <mxGeometry y="30" width="750" height="780" as="geometry" />
        </mxCell>
        <mxCell id="2ncl9cSA9QrokcnmzJrR-2" value="Administrator" style="shape=cube;whiteSpace=wrap;html=1;boundedLbl=1;backgroundOutline=1;darkOpacity=0.05;darkOpacity2=0.1;" vertex="1" parent="h0v8Gbnb3fVlkxhMkXxS-4">
          <mxGeometry y="260" width="120" height="80" as="geometry" />
        </mxCell>
        <mxCell id="2ncl9cSA9QrokcnmzJrR-10" value="" style="endArrow=classic;html=1;rounded=0;edgeStyle=orthogonalEdgeStyle;entryX=0;entryY=0.5;entryDx=0;entryDy=0;exitX=1.004;exitY=0.508;exitDx=0;exitDy=0;exitPerimeter=0;" edge="1" parent="h0v8Gbnb3fVlkxhMkXxS-4" source="2ncl9cSA9QrokcnmzJrR-2" target="2ncl9cSA9QrokcnmzJrR-3">
          <mxGeometry width="50" height="50" relative="1" as="geometry">
            <mxPoint x="150" y="300" as="sourcePoint" />
            <mxPoint x="200" y="160" as="targetPoint" />
            <Array as="points">
              <mxPoint x="201" y="301" />
              <mxPoint x="201" y="150" />
            </Array>
          </mxGeometry>
        </mxCell>
        <mxCell id="2ncl9cSA9QrokcnmzJrR-11" value="Windows 11" style="text;html=1;align=center;verticalAlign=middle;resizable=0;points=[];autosize=1;strokeColor=none;fillColor=none;" vertex="1" parent="h0v8Gbnb3fVlkxhMkXxS-4">
          <mxGeometry x="190" y="210" width="90" height="30" as="geometry" />
        </mxCell>
        <mxCell id="2ncl9cSA9QrokcnmzJrR-12" value="Maintain Cars GUI" style="text;html=1;align=center;verticalAlign=middle;resizable=0;points=[];autosize=1;strokeColor=none;fillColor=none;" vertex="1" parent="h0v8Gbnb3fVlkxhMkXxS-4">
          <mxGeometry x="80" y="210" width="120" height="30" as="geometry" />
        </mxCell>
        <mxCell id="2ncl9cSA9QrokcnmzJrR-15" value="" style="group" vertex="1" connectable="0" parent="h0v8Gbnb3fVlkxhMkXxS-4">
          <mxGeometry x="540" y="135" width="160" height="30" as="geometry" />
        </mxCell>
        <mxCell id="2ncl9cSA9QrokcnmzJrR-13" value="1" style="html=1;dashed=0;whiteSpace=wrap;shape=mxgraph.dfd.dataStoreID;align=left;spacingLeft=3;points=[[0,0],[0.5,0],[1,0],[0,0.5],[1,0.5],[0,1],[0.5,1],[1,1]];" vertex="1" parent="2ncl9cSA9QrokcnmzJrR-15">
          <mxGeometry width="100" height="30" as="geometry" />
        </mxCell>
        <mxCell id="2ncl9cSA9QrokcnmzJrR-14" value="Cars SQL Server" style="text;html=1;align=center;verticalAlign=middle;resizable=0;points=[];autosize=1;strokeColor=none;fillColor=none;" vertex="1" parent="2ncl9cSA9QrokcnmzJrR-15">
          <mxGeometry x="40" width="110" height="30" as="geometry" />
        </mxCell>
        <mxCell id="2ncl9cSA9QrokcnmzJrR-16" value="" style="endArrow=classic;html=1;rounded=0;exitX=0;exitY=0.5;exitDx=0;exitDy=0;entryX=1;entryY=0.5;entryDx=0;entryDy=0;" edge="1" parent="h0v8Gbnb3fVlkxhMkXxS-4" source="2ncl9cSA9QrokcnmzJrR-13" target="2ncl9cSA9QrokcnmzJrR-3">
          <mxGeometry width="50" height="50" relative="1" as="geometry">
            <mxPoint x="390" y="220" as="sourcePoint" />
            <mxPoint x="350" y="220" as="targetPoint" />
          </mxGeometry>
        </mxCell>
        <mxCell id="2ncl9cSA9QrokcnmzJrR-17" value="SQL select: Car" style="text;html=1;align=center;verticalAlign=middle;resizable=0;points=[];autosize=1;strokeColor=none;fillColor=none;" vertex="1" parent="h0v8Gbnb3fVlkxhMkXxS-4">
          <mxGeometry x="410" y="120" width="110" height="30" as="geometry" />
        </mxCell>
        <mxCell id="2ncl9cSA9QrokcnmzJrR-18" value="" style="endArrow=classic;html=1;rounded=0;edgeStyle=orthogonalEdgeStyle;exitX=0.44;exitY=0.033;exitDx=0;exitDy=0;exitPerimeter=0;entryX=0.2;entryY=0.04;entryDx=0;entryDy=0;entryPerimeter=0;" edge="1" parent="h0v8Gbnb3fVlkxhMkXxS-4" source="2ncl9cSA9QrokcnmzJrR-7" target="2ncl9cSA9QrokcnmzJrR-14">
          <mxGeometry width="50" height="50" relative="1" as="geometry">
            <mxPoint x="310" y="80" as="sourcePoint" />
            <mxPoint x="360" y="30" as="targetPoint" />
            <Array as="points">
              <mxPoint x="318" y="60" />
              <mxPoint x="602" y="60" />
            </Array>
          </mxGeometry>
        </mxCell>
        <mxCell id="2ncl9cSA9QrokcnmzJrR-19" value="SQL Update: Existing Cars" style="text;html=1;align=center;verticalAlign=middle;resizable=0;points=[];autosize=1;strokeColor=none;fillColor=none;" vertex="1" parent="h0v8Gbnb3fVlkxhMkXxS-4">
          <mxGeometry x="365" width="170" height="30" as="geometry" />
        </mxCell>
        <mxCell id="2ncl9cSA9QrokcnmzJrR-20" value="SQL Delete: Existing Cars" style="text;html=1;align=center;verticalAlign=middle;resizable=0;points=[];autosize=1;strokeColor=none;fillColor=none;" vertex="1" parent="h0v8Gbnb3fVlkxhMkXxS-4">
          <mxGeometry x="370" y="30" width="160" height="30" as="geometry" />
        </mxCell>
        <mxCell id="2ncl9cSA9QrokcnmzJrR-3" value="Maintain Cars" style="rounded=1;whiteSpace=wrap;html=1;" vertex="1" parent="h0v8Gbnb3fVlkxhMkXxS-4">
          <mxGeometry x="260" y="100" width="120" height="100" as="geometry" />
        </mxCell>
        <mxCell id="2ncl9cSA9QrokcnmzJrR-4" value="" style="endArrow=none;html=1;rounded=0;" edge="1" parent="h0v8Gbnb3fVlkxhMkXxS-4">
          <mxGeometry width="50" height="50" relative="1" as="geometry">
            <mxPoint x="260" y="130" as="sourcePoint" />
            <mxPoint x="380" y="130" as="targetPoint" />
          </mxGeometry>
        </mxCell>
        <mxCell id="2ncl9cSA9QrokcnmzJrR-5" value="" style="endArrow=none;html=1;rounded=0;" edge="1" parent="h0v8Gbnb3fVlkxhMkXxS-4">
          <mxGeometry width="50" height="50" relative="1" as="geometry">
            <mxPoint x="260" y="170" as="sourcePoint" />
            <mxPoint x="380" y="170" as="targetPoint" />
          </mxGeometry>
        </mxCell>
        <mxCell id="2ncl9cSA9QrokcnmzJrR-7" value="1.1" style="text;html=1;align=center;verticalAlign=middle;resizable=0;points=[];autosize=1;strokeColor=none;fillColor=none;" vertex="1" parent="h0v8Gbnb3fVlkxhMkXxS-4">
          <mxGeometry x="300" y="100" width="40" height="30" as="geometry" />
        </mxCell>
        <mxCell id="2ncl9cSA9QrokcnmzJrR-8" value="Visual Studio" style="text;html=1;align=center;verticalAlign=middle;resizable=0;points=[];autosize=1;strokeColor=none;fillColor=none;" vertex="1" parent="h0v8Gbnb3fVlkxhMkXxS-4">
          <mxGeometry x="275" y="170" width="90" height="30" as="geometry" />
        </mxCell>
        <mxCell id="2ncl9cSA9QrokcnmzJrR-31" value="" style="endArrow=classic;html=1;rounded=0;edgeStyle=orthogonalEdgeStyle;entryX=0;entryY=0.5;entryDx=0;entryDy=0;exitX=1.004;exitY=0.768;exitDx=0;exitDy=0;exitPerimeter=0;" edge="1" parent="h0v8Gbnb3fVlkxhMkXxS-4" source="2ncl9cSA9QrokcnmzJrR-2" target="2ncl9cSA9QrokcnmzJrR-24">
          <mxGeometry width="50" height="50" relative="1" as="geometry">
            <mxPoint x="149.51999999999998" y="334.74" as="sourcePoint" />
            <mxPoint x="199.51999999999998" y="284.74" as="targetPoint" />
          </mxGeometry>
        </mxCell>
        <mxCell id="2ncl9cSA9QrokcnmzJrR-33" value="" style="endArrow=classic;html=1;rounded=0;edgeStyle=orthogonalEdgeStyle;entryX=1;entryY=0.5;entryDx=0;entryDy=0;" edge="1" parent="h0v8Gbnb3fVlkxhMkXxS-4" target="2ncl9cSA9QrokcnmzJrR-24">
          <mxGeometry width="50" height="50" relative="1" as="geometry">
            <mxPoint x="590" y="165" as="sourcePoint" />
            <mxPoint x="450" y="380" as="targetPoint" />
            <Array as="points">
              <mxPoint x="590" y="375" />
            </Array>
          </mxGeometry>
        </mxCell>
        <mxCell id="2ncl9cSA9QrokcnmzJrR-34" value="SQL Select: Car" style="text;html=1;align=center;verticalAlign=middle;resizable=0;points=[];autosize=1;strokeColor=none;fillColor=none;" vertex="1" parent="h0v8Gbnb3fVlkxhMkXxS-4">
          <mxGeometry x="590" y="295" width="110" height="30" as="geometry" />
        </mxCell>
        <mxCell id="2ncl9cSA9QrokcnmzJrR-35" value="Windows 11" style="text;html=1;align=center;verticalAlign=middle;resizable=0;points=[];autosize=1;strokeColor=none;fillColor=none;" vertex="1" parent="h0v8Gbnb3fVlkxhMkXxS-4">
          <mxGeometry x="230" y="330" width="90" height="30" as="geometry" />
        </mxCell>
        <mxCell id="2ncl9cSA9QrokcnmzJrR-36" value="Reserve Car GUI" style="text;html=1;align=center;verticalAlign=middle;resizable=0;points=[];autosize=1;strokeColor=none;fillColor=none;" vertex="1" parent="h0v8Gbnb3fVlkxhMkXxS-4">
          <mxGeometry x="120" y="330" width="120" height="30" as="geometry" />
        </mxCell>
        <mxCell id="2ncl9cSA9QrokcnmzJrR-24" value="Reserve Car" style="rounded=1;whiteSpace=wrap;html=1;" vertex="1" parent="h0v8Gbnb3fVlkxhMkXxS-4">
          <mxGeometry x="355" y="325" width="120" height="100" as="geometry" />
        </mxCell>
        <mxCell id="2ncl9cSA9QrokcnmzJrR-25" value="" style="endArrow=none;html=1;rounded=0;" edge="1" parent="h0v8Gbnb3fVlkxhMkXxS-4">
          <mxGeometry width="50" height="50" relative="1" as="geometry">
            <mxPoint x="355" y="355" as="sourcePoint" />
            <mxPoint x="475" y="355" as="targetPoint" />
          </mxGeometry>
        </mxCell>
        <mxCell id="2ncl9cSA9QrokcnmzJrR-26" value="" style="endArrow=none;html=1;rounded=0;" edge="1" parent="h0v8Gbnb3fVlkxhMkXxS-4">
          <mxGeometry width="50" height="50" relative="1" as="geometry">
            <mxPoint x="355" y="395" as="sourcePoint" />
            <mxPoint x="475" y="395" as="targetPoint" />
          </mxGeometry>
        </mxCell>
        <mxCell id="2ncl9cSA9QrokcnmzJrR-28" value="1.2" style="text;html=1;align=center;verticalAlign=middle;resizable=0;points=[];autosize=1;strokeColor=none;fillColor=none;" vertex="1" parent="h0v8Gbnb3fVlkxhMkXxS-4">
          <mxGeometry x="395" y="325" width="40" height="30" as="geometry" />
        </mxCell>
        <mxCell id="2ncl9cSA9QrokcnmzJrR-29" value="Visual Studio" style="text;html=1;align=center;verticalAlign=middle;resizable=0;points=[];autosize=1;strokeColor=none;fillColor=none;" vertex="1" parent="h0v8Gbnb3fVlkxhMkXxS-4">
          <mxGeometry x="370" y="395" width="90" height="30" as="geometry" />
        </mxCell>
        <mxCell id="2ncl9cSA9QrokcnmzJrR-40" value="" style="group" vertex="1" connectable="0" parent="h0v8Gbnb3fVlkxhMkXxS-4">
          <mxGeometry x="290" y="530" width="120" height="100" as="geometry" />
        </mxCell>
        <mxCell id="2ncl9cSA9QrokcnmzJrR-37" value="Maintain Car Rental" style="rounded=1;whiteSpace=wrap;html=1;" vertex="1" parent="2ncl9cSA9QrokcnmzJrR-40">
          <mxGeometry width="120" height="100" as="geometry" />
        </mxCell>
        <mxCell id="2ncl9cSA9QrokcnmzJrR-38" value="" style="endArrow=none;html=1;rounded=0;" edge="1" parent="2ncl9cSA9QrokcnmzJrR-40">
          <mxGeometry width="50" height="50" relative="1" as="geometry">
            <mxPoint y="30" as="sourcePoint" />
            <mxPoint x="120" y="30" as="targetPoint" />
          </mxGeometry>
        </mxCell>
        <mxCell id="2ncl9cSA9QrokcnmzJrR-39" value="" style="endArrow=none;html=1;rounded=0;" edge="1" parent="2ncl9cSA9QrokcnmzJrR-40">
          <mxGeometry width="50" height="50" relative="1" as="geometry">
            <mxPoint y="70" as="sourcePoint" />
            <mxPoint x="120" y="70" as="targetPoint" />
          </mxGeometry>
        </mxCell>
        <mxCell id="2ncl9cSA9QrokcnmzJrR-43" value="1.3" style="text;html=1;align=center;verticalAlign=middle;resizable=0;points=[];autosize=1;strokeColor=none;fillColor=none;" vertex="1" parent="2ncl9cSA9QrokcnmzJrR-40">
          <mxGeometry x="40" width="40" height="30" as="geometry" />
        </mxCell>
        <mxCell id="2ncl9cSA9QrokcnmzJrR-44" value="Visual Studio" style="text;html=1;align=center;verticalAlign=middle;resizable=0;points=[];autosize=1;strokeColor=none;fillColor=none;" vertex="1" parent="2ncl9cSA9QrokcnmzJrR-40">
          <mxGeometry x="15" y="70" width="90" height="30" as="geometry" />
        </mxCell>
        <mxCell id="2ncl9cSA9QrokcnmzJrR-41" value="2" style="html=1;dashed=0;whiteSpace=wrap;shape=mxgraph.dfd.dataStoreID;align=left;spacingLeft=3;points=[[0,0],[0.5,0],[1,0],[0,0.5],[1,0.5],[0,1],[0.5,1],[1,1]];" vertex="1" parent="h0v8Gbnb3fVlkxhMkXxS-4">
          <mxGeometry x="650" y="565" width="100" height="30" as="geometry" />
        </mxCell>
        <mxCell id="2ncl9cSA9QrokcnmzJrR-42" value="" style="endArrow=classic;html=1;rounded=0;edgeStyle=orthogonalEdgeStyle;exitX=0.534;exitY=1.021;exitDx=0;exitDy=0;exitPerimeter=0;entryX=0;entryY=0.5;entryDx=0;entryDy=0;" edge="1" parent="h0v8Gbnb3fVlkxhMkXxS-4" source="2ncl9cSA9QrokcnmzJrR-2" target="2ncl9cSA9QrokcnmzJrR-37">
          <mxGeometry width="50" height="50" relative="1" as="geometry">
            <mxPoint x="70" y="500" as="sourcePoint" />
            <mxPoint x="120" y="450" as="targetPoint" />
            <Array as="points">
              <mxPoint x="64" y="580" />
            </Array>
          </mxGeometry>
        </mxCell>
        <mxCell id="2ncl9cSA9QrokcnmzJrR-46" value="Windows 11" style="text;html=1;align=center;verticalAlign=middle;resizable=0;points=[];autosize=1;strokeColor=none;fillColor=none;" vertex="1" parent="h0v8Gbnb3fVlkxhMkXxS-4">
          <mxGeometry x="60" y="440" width="90" height="30" as="geometry" />
        </mxCell>
        <mxCell id="2ncl9cSA9QrokcnmzJrR-48" value="" style="endArrow=classic;html=1;rounded=0;entryX=1;entryY=0.5;entryDx=0;entryDy=0;exitX=0;exitY=0.5;exitDx=0;exitDy=0;" edge="1" parent="h0v8Gbnb3fVlkxhMkXxS-4" source="2ncl9cSA9QrokcnmzJrR-41" target="2ncl9cSA9QrokcnmzJrR-37">
          <mxGeometry width="50" height="50" relative="1" as="geometry">
            <mxPoint x="550" y="615" as="sourcePoint" />
            <mxPoint x="600" y="565" as="targetPoint" />
          </mxGeometry>
        </mxCell>
        <mxCell id="2ncl9cSA9QrokcnmzJrR-51" value="SQL Update: Car Rental&amp;nbsp;" style="text;html=1;align=center;verticalAlign=middle;resizable=0;points=[];autosize=1;strokeColor=none;fillColor=none;" vertex="1" parent="h0v8Gbnb3fVlkxhMkXxS-4">
          <mxGeometry x="465" y="720" width="160" height="30" as="geometry" />
        </mxCell>
        <mxCell id="2ncl9cSA9QrokcnmzJrR-53" value="SQL Select: Car Rental" style="text;html=1;align=center;verticalAlign=middle;resizable=0;points=[];autosize=1;strokeColor=none;fillColor=none;" vertex="1" parent="h0v8Gbnb3fVlkxhMkXxS-4">
          <mxGeometry x="455" y="550" width="150" height="30" as="geometry" />
        </mxCell>
        <mxCell id="2ncl9cSA9QrokcnmzJrR-54" value="" style="endArrow=classic;html=1;rounded=0;edgeStyle=orthogonalEdgeStyle;exitX=0.518;exitY=1.04;exitDx=0;exitDy=0;exitPerimeter=0;" edge="1" parent="h0v8Gbnb3fVlkxhMkXxS-4" source="2ncl9cSA9QrokcnmzJrR-44">
          <mxGeometry width="50" height="50" relative="1" as="geometry">
            <mxPoint x="649.5" y="645" as="sourcePoint" />
            <mxPoint x="699.5" y="595" as="targetPoint" />
            <Array as="points">
              <mxPoint x="352" y="690" />
              <mxPoint x="700" y="690" />
            </Array>
          </mxGeometry>
        </mxCell>
        <mxCell id="n2SCByvOmG3dgClR_DDz-1" value="SQL Delete: Car Rental&amp;nbsp;" style="text;html=1;align=center;verticalAlign=middle;resizable=0;points=[];autosize=1;strokeColor=none;fillColor=none;" vertex="1" parent="h0v8Gbnb3fVlkxhMkXxS-4">
          <mxGeometry x="470" y="750" width="150" height="30" as="geometry" />
        </mxCell>
        <mxCell id="n2SCByvOmG3dgClR_DDz-2" value="SQL Add: Car Rental&amp;nbsp;" style="text;html=1;align=center;verticalAlign=middle;resizable=0;points=[];autosize=1;strokeColor=none;fillColor=none;" vertex="1" parent="h0v8Gbnb3fVlkxhMkXxS-4">
          <mxGeometry x="465" y="690" width="140" height="30" as="geometry" />
        </mxCell>
        <mxCell id="h0v8Gbnb3fVlkxhMkXxS-3" value="" style="group" vertex="1" connectable="0" parent="h0v8Gbnb3fVlkxhMkXxS-2">
          <mxGeometry y="470" width="900" height="155" as="geometry" />
        </mxCell>
        <mxCell id="2ncl9cSA9QrokcnmzJrR-47" value="Maintain Rental GUI" style="text;html=1;align=center;verticalAlign=middle;resizable=0;points=[];autosize=1;strokeColor=none;fillColor=none;" vertex="1" parent="h0v8Gbnb3fVlkxhMkXxS-3">
          <mxGeometry width="130" height="30" as="geometry" />
        </mxCell>
        <mxCell id="2ncl9cSA9QrokcnmzJrR-49" value="Car Rental SQL Server" style="text;html=1;align=center;verticalAlign=middle;resizable=0;points=[];autosize=1;strokeColor=none;fillColor=none;" vertex="1" parent="h0v8Gbnb3fVlkxhMkXxS-3">
          <mxGeometry x="750" y="125" width="150" height="30" as="geometry" />
        </mxCell>
      </root>
    </mxGraphModel>
  </diagram>
  <diagram id="u-4J_r6N4qBaEx93_eIa" name="Customer">
    <mxGraphModel dx="875" dy="576" grid="1" gridSize="10" guides="1" tooltips="1" connect="1" arrows="1" fold="1" page="1" pageScale="1" pageWidth="1100" pageHeight="850" math="0" shadow="0">
      <root>
        <mxCell id="0" />
        <mxCell id="1" parent="0" />
        <mxCell id="psEcEKA2s3paxMLYz826-1" value="Customer" style="shape=cube;whiteSpace=wrap;html=1;boundedLbl=1;backgroundOutline=1;darkOpacity=0.05;darkOpacity2=0.1;" vertex="1" parent="1">
          <mxGeometry x="10" y="390" width="120" height="80" as="geometry" />
        </mxCell>
        <mxCell id="psEcEKA2s3paxMLYz826-6" value="" style="group" vertex="1" connectable="0" parent="1">
          <mxGeometry x="280" y="280" width="120" height="110" as="geometry" />
        </mxCell>
        <mxCell id="psEcEKA2s3paxMLYz826-2" value="" style="rounded=1;whiteSpace=wrap;html=1;" vertex="1" parent="psEcEKA2s3paxMLYz826-6">
          <mxGeometry width="120" height="110" as="geometry" />
        </mxCell>
        <mxCell id="psEcEKA2s3paxMLYz826-4" value="" style="endArrow=none;html=1;rounded=0;" edge="1" parent="psEcEKA2s3paxMLYz826-6">
          <mxGeometry width="50" height="50" relative="1" as="geometry">
            <mxPoint y="27.5" as="sourcePoint" />
            <mxPoint x="120" y="27.5" as="targetPoint" />
          </mxGeometry>
        </mxCell>
        <mxCell id="psEcEKA2s3paxMLYz826-5" value="" style="endArrow=none;html=1;rounded=0;" edge="1" parent="psEcEKA2s3paxMLYz826-6">
          <mxGeometry width="50" height="50" relative="1" as="geometry">
            <mxPoint y="82.5" as="sourcePoint" />
            <mxPoint x="120" y="82.5" as="targetPoint" />
          </mxGeometry>
        </mxCell>
      </root>
    </mxGraphModel>
  </diagram>
</mxfile>
